<?xml version="1.0" encoding="UTF-8"?>
<svg width="256px" height="256px" viewBox="0 0 256 256" version="1.1" xmlns="http://www.w3.org/2000/svg" xmlns:xlink="http://www.w3.org/1999/xlink">
    <title>Artboard</title>
    <g id="Artboard" stroke="none" stroke-width="1" fill="none" fill-rule="evenodd">
        <path d="M88.2123639,21.6545901 C87.042876,22.0054864 86.6920147,23.291913 87.2768335,25.3967117 C88.5241075,27.1120504 88.5240576,35.8436176 87.1209117,51.591563 C73.7115927,52.0594779 58.8989781,51.903611 42.8391393,51.2797195 L41.9036089,51.7474847 C42.3713242,57.9845038 42.6831178,64.8450052 42.8391393,72.3291536 C58.2753411,71.7055665 72.6200408,71.0819294 85.7176161,70.3021711 C85.0938793,81.8405291 84.781936,94.9378998 84.9380075,109.75037 C75.7385254,113.804385 67.6305453,118.949857 60.4582952,125.186621 C53.2858456,131.423591 47.3607698,139.063706 42.8391393,148.107116 C38.4732809,156.994705 36.6021702,166.817774 37.0700352,177.576324 C37.5378004,188.179052 40.18837,196.598775 45.0220436,202.679723 C50.0114892,208.604749 56.5601521,212.035027 64.8241038,213.126479 C73.0878559,214.373853 80.8838927,213.282401 88.0564421,209.696201 C95.2287421,206.265923 100.685903,203.147488 104.428224,200.496819 L107.390737,207.981062 C117.681472,202.36788 125.165615,198.937601 129.687545,197.534306 L129.843467,194.883636 C127.504491,190.67375 125.321537,186.619785 123.294754,182.565819 C132.026221,172.275035 139.04265,161.828279 144.344188,151.225551 C149.645377,140.467001 154.478851,128.928843 158.688988,116.610926 C164.146099,117.390634 170.53879,119.105774 177.867361,121.756343 C185.351454,124.407113 191.588224,129.396608 196.733891,136.72483 C201.879108,144.053201 204.217884,151.537439 203.750369,159.333481 C203.282404,167.129568 200.319841,174.146096 194.86283,180.382915 C189.40537,186.619834 181.921076,191.60928 172.254178,195.19548 C162.742803,198.78168 152.919634,201.276428 142.784971,202.679723 L142.784971,205.174471 C147.774317,212.034977 151.204545,218.739662 153.231727,225.132453 C164.613864,222.637705 175.840129,218.739662 186.7549,213.438323 C197.825143,208.136984 207.336269,200.185025 215.288577,189.738219 C223.396308,179.135591 227.294251,168.532913 226.982707,157.930185 C226.670664,147.171686 223.084364,137.036723 216.224107,127.369526 C209.363351,117.702478 200.475763,110.997843 189.717413,107.255622 C178.958613,103.357678 170.53879,100.707004 164.30217,99.4595353 L167.264683,89.4805443 L171.006805,86.2061879 C172.877666,84.3352768 172.565772,82.9319862 170.071274,82.1522228 L148.398153,77.7864143 C145.591412,77.4747205 144.343988,78.7220944 144.656032,81.5285359 C145.591412,82.3082943 144.811704,87.6095783 142.317206,97.5884745 C127.348619,98.368183 114.718909,100.239244 104.584146,103.045735 C104.584046,94.0023744 105.051761,82.6201377 105.987442,68.8988755 C110.197229,68.43126 118.461031,67.6516513 130.778997,66.5600495 C143.252586,65.3128253 158.532866,63.129921 176.619987,60.0113366 L170.850883,40.5211199 C152.296047,45.0429999 131.090641,48.473278 107.390737,50.6560326 C108.014324,44.4193129 108.637961,37.7147333 109.261798,30.6980507 L112.380233,27.7355377 C114.095272,26.0205982 113.627457,24.7732294 111.132859,24.1493379 L89.6156595,21.6545901 C89.0309405,21.5766791 88.6021931,21.5376264 88.2123639,21.6545901 Z M137.32771,115.20763 C134.053204,125.342643 130.622876,134.386054 126.880954,142.493934 C123.138732,150.445992 119.084717,157.306543 114.87498,163.075603 C113.159741,158.242079 111.444503,152.628896 109.573641,146.080134 C107.702481,139.375549 106.299085,131.111747 105.363755,121.288578 C117.993315,117.702478 128.595893,115.675495 137.32771,115.20763 Z M86.3413031,129.240586 C87.1208119,137.348567 88.3681359,145.456497 89.9275029,153.564377 C91.6425921,161.672357 94.1372401,170.871739 97.5676679,181.162524 C94.7609769,183.5014 91.1747271,185.996147 86.8090683,188.802689 C82.4431599,191.453408 77.4536145,193.012576 71.8405818,193.324419 C66.2273495,193.636263 62.3292064,192.232967 59.99053,189.114532 C57.8075759,185.996098 56.7161736,181.006652 56.7161736,174.146046 C56.8720455,167.129618 58.431163,160.424983 61.3938256,154.032142 C64.5122104,147.483479 68.5661256,142.18214 73.7116426,138.128125 C79.0128818,133.918338 83.2227187,130.955825 86.3413031,129.240586 Z" id="path2195" fill="#000000" fill-rule="nonzero"></path>
    </g>
</svg>